<svg xmlns="http://www.w3.org/2000/svg" width="32" height="32">
  <path fill="#fff" d="M32 32H0V0h32zm-9.913-13.39a3.161 3.161 0 00-.772-2.243 3.773 3.773 0 00-2.056-1.111v-.072a2.938 2.938 0 001.398-1.162 3.27 3.27 0 00.51-1.805 3.195 3.195 0 00-.369-1.55 2.651 2.651 0 00-1.113-1.071 4.611 4.611 0 00-1.474-.49 18.349 18.349 0 00-2.314-.112h-4.895v13.859h5.546c.8.02 1.6-.066 2.378-.255a4.877 4.877 0 001.719-.877c.443-.347.803-.79 1.052-1.295a3.986 3.986 0 00.391-1.815m-4.46-5.7a1.547 1.547 0 00-.172-.684 1.02 1.02 0 00-.537-.51 2.153 2.153 0 00-.816-.173c-.314 0-.781-.01-1.401-.01h-.242v2.936h.439c.594 0 1.013-.01 1.252-.02.257-.018.508-.084.741-.194.25-.107.453-.298.574-.54.11-.254.165-.529.16-.806m.875 5.64a1.704 1.704 0 00-.26-1.01 1.563 1.563 0 00-.782-.55 2.71 2.71 0 00-.87-.133c-.369-.01-.865-.01-1.484-.01h-.643v3.467h.188c.905 0 1.53-.01 1.878-.02a2.924 2.924 0 001.062-.246c.292-.117.536-.329.693-.601.148-.276.223-.585.218-.898"/>
</svg>
