<svg xmlns="http://www.w3.org/2000/svg" width="32" height="32">
	<path fill="#fff" d="M32 32H0V0h32zm-9.603-7.924c.985 0 1.782-.8 1.78-1.784V9.739a1.777 1.777 0 00-1.78-1.775H9.827a1.777 1.777 0 00-1.78 1.775v12.553a1.78 1.78 0 001.78 1.784H22.4m-1.403-9.28c.82 3.177-1.578 6.274-4.859 6.274-3.28 0-5.68-3.097-4.858-6.273H9.87v6.914c0 .344.28.623.623.622h11.279a.621.621 0 00.624-.622v-6.914H20.99m-4.85-1.642c4.162-.313 4.162 6.105 0 5.792-3.86-.001-3.86-5.794 0-5.792m3.773-3.376h1.902a.62.62 0 01.623.623v1.896a.62.62 0 01-.623.622h-1.902a.621.621 0 01-.623-.622v-1.896c0-.345.279-.624.623-.623"/>
</svg>
