<svg xmlns="http://www.w3.org/2000/svg" viewBox="0 0 32 32">
	<path d="M32 0v32H0V0zm-6.68 11.024a7.476 7.476 0 01-2.133.58 3.735 3.735 0 001.632-2.059c-.73.433-1.527.74-2.359.908-2.6-2.768-7.188-.314-6.33 3.385a10.52 10.52 0 01-7.655-3.885 3.727 3.727 0 001.15 4.966 3.753 3.753 0 01-1.683-.47v.052a3.723 3.723 0 002.98 3.64 3.91 3.91 0 01-.98.133 3.939 3.939 0 01-.698-.071 3.715 3.715 0 003.467 2.58 7.434 7.434 0 01-4.613 1.59 8.458 8.458 0 01-.886-.05c7.033 4.513 16.274-.546 16.26-8.903 0-.163 0-.316-.01-.48a7.475 7.475 0 001.859-1.916z"/>
</svg>
