<svg xmlns="http://www.w3.org/2000/svg" viewBox="0 0 32 32">
	<style>
			#b{fill:#222}
			#i{fill:#ddd}
		@media (prefers-color-scheme: dark) {
			#i{fill:#222}
			#b{fill:#ddd}
		}
	</style>
<path id="b" d="M0 0h32v32H0z"/><path id="i" d="M6 24.368c0-.256.008-.48.024-.672.016-.192.048-.352.096-.48.432-.032.768-.112 1.008-.24s.408-.344.504-.648c.096-.304.144-.736.144-1.296v-9.696c0-.576-.048-1.008-.144-1.296-.096-.304-.264-.52-.504-.648-.224-.128-.552-.208-.984-.24a1.554 1.554 0 01-.12-.504A7.87 7.87 0 016 8c.64.032 1.256.056 1.848.072h2.568c.448-.016.88-.024 1.296-.024.432-.016.752-.024.96-.024 1.376 0 2.472.216 3.288.648.832.432 1.424 1.008 1.776 1.728.352.704.528 1.48.528 2.328 0 .96-.208 1.872-.624 2.736a5.226 5.226 0 01-1.848 2.112c-.816.528-1.84.792-3.072.792-.672 0-1.224-.088-1.656-.264a2.575 2.575 0 01-.072-.576c.016-.176.056-.352.12-.528.192.048.384.088.576.12.192.016.384.024.576.024.56 0 1.08-.104 1.56-.312.48-.224.864-.6 1.152-1.128.304-.528.456-1.288.456-2.28 0-1.248-.304-2.264-.912-3.048-.592-.784-1.56-1.176-2.904-1.176-.192 0-.4.016-.624.048a9.584 9.584 0 00-.912.192l.336-.384v11.52c0 .688.072 1.216.216 1.584.16.368.4.624.72.768.336.144.768.24 1.296.288.048.144.08.312.096.504s.024.408.024.648c-.24-.016-.544-.032-.912-.048-.352 0-.736-.008-1.152-.024H8.208c-.448.016-.872.024-1.272.024-.384.016-.696.032-.936.048zm17.008.144c-.992 0-1.736-.256-2.232-.768-.48-.512-.72-1.352-.72-2.52v-6.192a5.386 5.386 0 00-.768-.192 4.882 4.882 0 00-.96-.12c0-.224.016-.424.048-.6s.088-.368.168-.576h1.512v-3.096a4.35 4.35 0 001.128-.408c.384-.192.704-.4.96-.624a.59.59 0 01.36.312c.064.144.096.48.096 1.008v2.808h3.072c0 .192-.016.392-.048.6a2.57 2.57 0 01-.168.6c-.576 0-1.104.032-1.584.096-.464.064-.888.136-1.272.216v5.688c0 .56.048 1.016.144 1.368.112.336.264.584.456.744.208.16.456.24.744.24.32 0 .6-.04.84-.12a2.69 2.69 0 00.72-.408c.208.256.328.56.36.912-.272.288-.68.536-1.224.744a4.876 4.876 0 01-1.632.288z"/></svg>
