<svg xmlns="http://www.w3.org/2000/svg" width="48" height="48">
  <path fill="none" stroke="#323232" stroke-width="2" d="M47 24a23 23 0 01-23 23A23 23 0 011 24 23 23 0 0124 1a23 23 0 0123 23zm-31.533-5.195c-9.31 1.477-5.813 7.88.1 3.013.23-.79-.857-1.289-.327-2.278 2.907-2.022 4.071-2.887 6.182-3.379-4.453-2.337-5.61-5.441-6.385-8.551-1.242 3.676-1.86 8.923.43 11.195zm17.066 0c9.31 1.477 5.813 7.88-.1 3.013-.23-.79.857-1.289.327-2.278-2.907-2.022-4.071-2.887-6.182-3.379 4.453-2.337 5.61-5.441 6.385-8.551 1.242 3.676 1.86 8.923-.43 11.195zm-15.285 13.79C14.422 27.99 12.983 15.99 24 15.99s9.578 12 6.752 16.604c.265.576 3.265 7.396-6.752 7.396s-7.017-6.82-6.752-7.396z"/>
</svg>
