<svg xmlns="http://www.w3.org/2000/svg" width="48" height="48">
  <path fill="none" stroke="#323232" stroke-linecap="round" stroke-width="2" d="M47 24a23 23 0 01-23 23A23 23 0 011 24 23 23 0 0124 1a23 23 0 0123 23zM24.5 39.866A1 1 0 0123 39v-6h2v6a1 1 0 01-.5.866zM24 7a8 8 0 00-8 8v15h16V15a8 8 0 00-8-8z"/>
  <path fill="#323232" stroke="#323232" stroke-linecap="round" stroke-width="2" d="M32 15v3.565c-1 .089-2-2.565-3.511-1.852-1.32.622-1.489 4.455-2.746 4.57-1.372.126-1.382-2.543-2.343-4.045-.376-.587-2.045-.993-3.049.762C19.284 19.867 16 17 16 15a8 8 0 1116 0z"/>
</svg>
