<svg xmlns="http://www.w3.org/2000/svg" width="80" height="140">
	<path fill="#e84d37" fill-rule="evenodd" d="M57.3 75.019l-1.066 1.07-2.886-2.877a19.679 19.581 0 01-1.7-1.16 19.112 19.017 0 01-5.096 5.167 18.727 18.634 0 01-4.602 2.291l-1.973 1.968-1.196-1.19a19.701 19.603 0 01-2.902.221q-.55 0-1.096-.03l3.1 3.079-3.324 3.31-3.326-3.31 3.129-3.11a18.957 18.863 0 01-3.55-.635l-1.673 1.665-3.324-3.31.353-.354a18.977 18.883 0 01-2.444-1.736v.01l-.042-.05a18.89 18.796 0 01-1.96-1.908 16.138 16.058 0 01-5.69 1.716l21.708 61.53c.616 1.746 1.43 2.624 2.243 2.624.814 0 1.623-.878 2.244-2.624l21.674-61.449c-.24.01-.482.02-.724.02a18.676 18.583 0 01-5.877-.928m-6.485-.162l3.324 3.31-3.324 3.311-3.324-3.31m-2.095 2.079l3.324 3.31-3.324 3.311-3.325-3.31m-5.419 16.18l3.325-3.311 3.324 3.31-3.324 3.311m3.324 7.47l-3.324 3.31-3.325-3.31 3.325-3.301m2.094-12.87l3.325-3.31 3.324 3.31-3.324 3.301m-5.419-12.001l3.324 3.3-3.324 3.311-3.325-3.31m1.23 5.4l-3.324 3.3-3.325-3.3 3.326-3.311M23.39 80.58l.331-.333 3.325 3.31-1.927 1.918m1.087 3.089l2.934-2.917 3.324 3.3-3.324 3.311-2.51-2.493m2.392 6.783l.118-.121 3.324 3.31-1.714 1.706m1.74 4.936l-.652-1.847 2.72-2.715 3.326 3.31-3.324 3.31m.196 4.361l3.128 3.12-1.503 1.493m3.597 10.194l-2.51-7.116 2.51-2.493 2.509 2.493m1.088-3.078l-1.503-1.494 3.128-3.119m2.265-6.42l-2.068 2.06-3.325-3.31 3.325-3.311 2.72 2.715m1.089-3.089l-1.714-1.706 3.324-3.31.118.12m2.393-6.782l-2.511 2.493-3.324-3.31 3.324-3.301 2.933 2.917m1.089-3.089l-1.927-1.917 3.324-3.311.33.333m17.968-35.76A35.748 35.571 0 106.45 47.816a14.265 14.194 0 1015.737 23.679 16.9 16.816 0 0013.678 6.985 16.847 16.763 0 0014.939-9.024l.677-.212A16.839 16.755 0 1074.533 44.82M63.157 67.57a10.384 10.333 0 01-8.25-4.006 3.186 3.17 0 00-3.728-.98 28.13 27.99 0 01-3.491 1.171 3.208 3.193 0 00-2.125 1.878 10.46 10.407 0 01-19.531-.354 3.185 3.17 0 00-2.523-2.049 2.516 2.503 0 00-.475-.04 3.198 3.182 0 00-2.544 1.262 7.882 7.843 0 11-8.895-12.122 3.197 3.181 0 001.833-4.35 29.367 29.221 0 1154.406-3.039 3.19 3.173 0 001.217 3.634 10.455 10.403 0 01-5.894 18.996"/>
</svg>
