<svg xmlns="http://www.w3.org/2000/svg" width="64" height="58">
  <path fill="#f1a62f" stroke="#642913" stroke-miterlimit="10" stroke-width="2" d="M13.667 22.799c-1.853 2.032-3.573 1.454-3.822-1.285L8.285 4.38c-.249-2.739 1.627-4.123 4.17-3.075l10.504 4.328c2.542 1.048 3.107 3.567 1.254 5.6zm35.748-.403c1.754 2.118 3.484 1.621 3.847-1.105L55.51 4.358c.362-2.726-1.421-4.097-3.962-3.046l-9.972 4.124c-2.541 1.051-3.186 3.644-1.432 5.762z"/>
  <path fill="#d27611" d="M48.066 19.661a5.316 10.997 34.432 01-10.602 6.065 5.316 10.997 34.432 011.833-12.076A5.316 10.997 34.432 0149.9 7.585a5.316 10.997 34.432 01-1.834 12.077m-24.019-5.983a10.998 5.316 55.952 011.753 12.09 10.998 5.316 55.952 01-10.563-6.137 10.998 5.316 55.952 01-1.752-12.089 10.998 5.316 55.952 0110.562 6.136"/>
  <path fill="none" stroke="#642913" stroke-miterlimit="10" stroke-width="2.5" d="M54.707 29.506c.002-.115.01-.23.01-.346 0-12.202-10.17-22.093-22.717-22.093-12.545 0-22.716 9.891-22.716 22.093 0 .115.007.229.009.346a17.425 17.425 0 00-1.46 6.969c0 11.218 10.82 20.313 24.167 20.313 13.346 0 24.168-9.095 24.168-20.313 0-2.448-.516-4.795-1.461-6.969z"/>
  <path fill="#f1a62f" stroke="#f19500" stroke-miterlimit="10" d="M53.772 29.579c.001-.109.009-.221.009-.33 0-11.7-9.751-21.184-21.782-21.184-12.028 0-21.78 9.484-21.78 21.184 0 .109.007.219.009.33a16.72 16.72 0 00-1.4 6.682c0 10.756 10.375 19.477 23.172 19.477s23.174-8.721 23.174-19.477a16.704 16.704 0 00-1.402-6.682z"/>
  <path fill="#f19500" d="M37.316 50.252c0-1.868-2.38-3.383-5.316-3.383s-5.317 1.515-5.317 3.383 2.381 0 5.317 0c2.937 0 5.316 1.868 5.316 0z"/>
  <path fill="none" stroke="#f19500" stroke-linecap="round" stroke-miterlimit="10" stroke-width="2" d="M18.354 30.845s12.773-8.889 27.293 0"/>
  <path stroke="#f19500" stroke-miterlimit="10" stroke-width="2" d="M32 33.901v5"/>
  <path fill="none" stroke="#471a03" stroke-linecap="round" stroke-miterlimit="10" stroke-width="2" d="M31.937 38.156a5.193 5.193 0 01-10.385 0m20.897 0a5.192 5.192 0 11-10.385 0"/>
  <path fill="#471a03" d="M36.076 30.805c0 1.868-3.181 3.382-4.076 3.382-1.093 0-4.077-1.514-4.077-3.382 0-1.867 1.826-1.177 4.077-1.177 2.252.001 4.076-.69 4.076 1.177z"/>
  <ellipse cx="21.25" cy="24.462" fill="#772603" rx="2.896" ry="3.996"/>
  <ellipse cx="20.417" cy="22.865" fill="#fff" rx="1.063" ry="1.597"/>
  <ellipse cx="42.75" cy="24.462" fill="#772603" rx="2.896" ry="3.996"/>
  <ellipse cx="41.917" cy="22.865" fill="#fff" rx="1.063" ry="1.597"/>
  <path stroke="#471a03" stroke-linecap="round" stroke-miterlimit="10" stroke-width="2" d="M1 27.225l14.215 1.321M1 33.222l14.021-1.089M1 38.799l14.554-3.352M63 27.225l-14.215 1.321M63 33.222l-14.021-1.089M63 38.799l-14.554-3.352"/>
</svg>
