<svg xmlns="http://www.w3.org/2000/svg" width="153" height="64">
  <path fill="#fff" fill-rule="evenodd" d="M150.377 45.165c-1.74-1.876-4.224-2.104-6.994-2.104h-.236a13.534 13.7 0 00-8.97-4.45c-3.497-.23-6.358-.228-8.828.84.083-.676.152-1.563.209-2.249a4.27 4.323 0 001.633.214c3.066 0 6.283-2.614 6.562-8.342.133-3.161-.38-5.473-1.483-6.638a2.66 2.693 0 00-1.942-.877c-1.646 0-3.186 1.46-4.39 4.102 0-.29-.008-.545-.012-.779-.008-.483-.015-.882-.015-1.328 0-1.117-.053-1.75-1.136-1.75a1.532 1.55 0 00-1.08.485 2.557 2.588 0 00-.605 1.961c.027 1.4.032 2.817.016 4.33-.5 2.27-1.404 4.057-2.338 4.754a17.454 17.667 0 001.113-4.303c.415-3.056-.042-5.702-1.226-7.08a2.098 2.124 0 00-1.985-.827 3.603 3.647 0 00-2.108 1.273.94.952 0 00-1.25-.345c-2.58 1.034-4.219 4.073-4.387 8.13a8.049 8.147 0 001.885 6.055 4.309 4.361 0 003.15 1.416 4.582 4.638 0 003.653-2.188 4.575 4.631 0 003.35-2.028c-.12 2.521-.31 4.995-.567 7.383a17.963 18.182 0 00-5.187 6.614c-1.98 3.98-1.762 7.632-.721 9.345a2.03 2.055 0 001.676 1.126c3.086 0 5.566-8.671 6.771-16.197a14.866 15.048 0 018.427-1.993 11.571 11.712 0 016.804 2.21 8.425 8.528 0 00-5.882 7.173 5.574 5.642 0 001.122 4.48 4.183 4.234 0 003.507 1.411 6.057 6.131 0 004.351-2.03 8.584 8.689 0 001.848-6.445 9.193 9.305 0 00-.605-2.799c3.905.648 6.253 4.03 6.05 8.858a10.006 10.128 0 01-9.886 9.514c-2.998 0-5.196-.742-6.352-2.144a4.521 4.577 0 01-.872-3.815c.029-.145.058-.272.083-.382a1.042 1.055 0 00-.052-.962.642.65 0 00-.531-.24 1.714 1.735 0 00-.386.056 3.44 3.482 0 00-2.477 3.23c0 2.971 3.128 6.17 9.992 6.17 7.133 0 12.426-4.378 12.875-11.226a9.509 9.624 0 00-2.574-7.61zm-34.93-20.772a12.434 12.586 0 00-.58 5.472 6.576 6.656 0 002.584 4.978 1.512 1.53 0 01-2.04-.341 6.585 6.665 0 01-1.284-4.795 10.546 10.674 0 011.32-5.314zm4.377 4.792a9.735 9.854 0 01-1.007 4.178c-1.17-.728-1.664-2.529-1.725-3.96-.126-2.553.94-4.747 1.788-4.994a.338.342 0 01.2.127c.47.504.901 2.173.744 4.65zm7.323 6.17a2.198 2.225 0 01-1.393-.395l.064-1.039c1.052-6.872 3.105-9.783 3.745-9.783a.317.32 0 01.243.133c.457.492.869 2.186.657 5.462-.248 3.524-1.489 5.625-3.32 5.625zm-8.333 19.305a.425.43 0 01-.28-.236c-.484-.794-.56-3.282 1.218-6.883a15.351 15.538 0 012.14-3.251c-1.037 6.714-2.494 10.087-3.078 10.374zm22.606-2.81a2.754 2.787 0 01-2.035.926h-.106a2.406 2.435 0 01-1.898-.847 3.855 3.902 0 01-.583-3.162 5.923 5.996 0 014.946-5.057 7.02 7.105 0 011.011 3.38 6.333 6.41 0 01-1.335 4.763zm-30.676-14.363c-.705-.26-1.435-1.952-.899-8.539.288-3.75.407-5.918-.485-6.893a1.624 1.644 0 00-1.242-.515c-2.14 0-4.202 2.636-5.638 5.797a62.76 63.524 0 01.46-7.006 10.82 10.951 0 005.114-5.22c1.818-3.615 1.583-7.466.411-9.4a2.045 2.07 0 00-1.66-1.16c-2.715 0-5.226 5.752-6.429 14.689a8.738 8.845 0 01-3.613.078 5.487 5.554 0 01-.89-.238 6.809 6.892 0 002.913-5.537 5.947 6.02 0 00-1.412-4.552 7.224 7.312 0 00-5.26-2.124c-.118 0-.239-.006-.36-.006-4.447 0-9.145 2.428-9.521 7.071-.385 4.08 3.19 6.458 6.646 8.757l.7.462c3.303 2.244 6.23 4.578 5.758 8.443-.382 3.17-4.33 5.722-8.535 5.393a7.31 7.398 0 01-5.196-2.593 6.72 6.802 0 01-1.43-5.202c.265-1.999 1.126-3.527 3.09-5.472a1.246 1.261 0 00.506-1.274.772.782 0 00-.985-.386 8.41 8.512 0 00-3.019 1.24 7.587 7.68 0 00-2.286 5.243c-.237 4.262 1.928 9.665 8.807 10.867a12.451 12.603 0 002.09.181c5.601 0 10.055-3.82 10.36-8.887.271-4.754-3.349-7.423-6.766-9.558l-.375-.228c-3.315-2.033-6.448-3.953-5.96-7.722.385-2.882 3.106-4.172 5.632-4.172.18 0 .358.006.54.018 2.797.182 4.364 1.802 4.405 4.564a4.357 4.41 0 01-1.047 3.111 1.482 1.5 0 01-.983.506.981.993 0 01-.832-.666 3.932 3.98 0 01-.064-2.206l.082-.253a1.077 1.09 0 00.039-1.045.64.648 0 00-.54-.257 1.818 1.84 0 00-.388.054 3.029 3.066 0 00-2.287 2.617c-.086 2.405 1.341 5.179 5.602 5.754a14.425 14.6 0 004.37-.04 99.962 99.962 0 00-.52 7.98c-.034 1.646-.061 2.612-.081 3.338-.03 1.093-.046 1.637-.046 3.11 0 1.26.184 1.708 1.22 1.708.57 0 1.547-.483 1.599-2.233 1.029-6.9 3.846-10.715 4.572-10.754a6.657 6.738 0 01-.06 2.102c-.1.96-.22 2.154-.25 3.59-.124 5.91 1.006 8.912 3.45 9.179 1.21.15 1.435-.405 1.48-.631a.98.992 0 00-.786-1.078zm-7.482-19.534c.974-6.345 2.442-9.95 2.987-10.2a.776.786 0 01.292.413 8.861 8.969 0 01-.816 6.75 8.168 8.267 0 01-2.463 3.037zm-25.723 4.39l-.149-.193a.973.985 0 00-.822-.292c-.87 0-2.298.421-2.426 1.53-.121.773-.25 2.088-.342 3.49-.652 5.294-2.198 8.223-3.023 8.223a.923.935 0 01-.732-.344c-1.067-1.226-1.182-5.278-.34-12.036l.016-.275-.149-.175a.966.978 0 00-.775-.258c-.881 0-2.328.425-2.458 1.57a39.032 39.507 0 00-.189 6.905c-.592 1.922-1.92 5.041-4.314 5.041a2.364 2.393 0 01-1.698-.796 7.225 7.313 0 01-1.484-5.197c.162-3.742 1.282-6.68 2.552-6.68a.717.726 0 01.66.289c.4.576.226 1.98-.154 3.062l-.085.229a1.106 1.12 0 00-.088 1.083.752.762 0 00.899.217c.745-.141 2.267-.95 2.398-1.96a5.182 5.245 0 00-1.027-3.73 2.909 2.944 0 00-2.225-.932c-3.248 0-5.886 3.843-6.138 8.94a15.9 15.9 0 000 .952c-.886 3.508-1.612 4.733-1.898 4.996-.238-.405-.552-2.348.433-7.576l.02-.28-.15-.175a1.1 1.113 0 00-.864-.28 2.164 2.19 0 00-2.284 1.432 7.61 7.702 0 00-.1.883l-.024.319c-.552 3.135-1.663 4.775-2.475 4.775a.7.708 0 01-.44-.283c-.668-.763-1.243-2.756-.93-5.327.409-3.455 1.799-5.776 3.446-5.776a1.204 1.219 0 011.007.336 2.287 2.315 0 01-.076 1.859l-.05.136a1.29 1.306 0 00-.116 1.244.817.827 0 00.9.236c.75-.141 2.267-1.038 2.397-2.054a3.17 3.21 0 00-.819-2.427 3.75 3.795 0 00-2.858-1.074c-2.825 0-6.36 2.163-7.014 8.293-1.059 3.559-2.404 5.218-2.98 5.218-.761 0-1.955-2.278-2.25-7.338a51.547 52.175 0 005.363-13.033c.823-3.587 1.375-9.412.025-11.134a1.358 1.374 0 00-1.09-.566c-3.944 0-7.121 12.292-7.663 21.106a27.205 27.536 0 00.058 4.083c-.883 4.234-2.547 6.93-3.312 6.93-.716 0-1.838-2.16-2.12-6.958a49.15 49.75 0 005.108-12.413c.785-3.423 1.309-8.981.018-10.628a1.318 1.334 0 00-1.057-.547c-3.77 0-6.805 11.721-7.322 20.127-.348 6.077 1.304 10.136 2.824 11.766a2.947 2.983 0 002.082 1.083c1.84 0 3.498-2.529 4.57-5.166.962 3.16 2.599 5.187 4.278 5.187 1.281 0 2.66-1.251 3.873-3.48.728 2.083 2.157 3.163 3.392 3.163.054 0 .109 0 .17-.007 1.178-.1 2.305-1.026 3.255-2.635.384 2.166 1.214 3.453 2.298 3.453 1.317 0 2.427-1.866 3.227-3.814a5.52 5.588 0 004.897 3.427c2.062 0 4.036-1.49 5.536-4.137.922 3.08 2.59 3.579 3.576 3.579.985 0 1.943-.72 2.812-2.073l-.03.28a29.285 29.642 0 00-5.626 9.74c-1.05 2.968-1.023 6.13.063 7.69a1.93 1.954 0 001.599.922c1.85 0 4.645-2.563 7.573-24.717.46-3.218.8-6.729.8-6.729zm-47.948 2.011c.36-6.235 2.413-14.62 3.446-16.026.29.889.34 4.12-.64 7.937a55.048 55.719 0 01-2.806 8.09zm8.734-.493c.358-6.645 2.572-15.644 3.659-17.018.32.873.4 4.3-.656 8.395a58.032 58.739 0 01-3.003 8.623zm34.241 15.768c-1.114 7.767-2.34 11.03-2.903 11.26a.517.523 0 01-.31-.253c-.466-.677-.614-2.354.367-5.03a35.677 36.112 0 012.846-5.977zm-13.039 2.226a1.141 1.155 0 00-.67-.321.757.767 0 00-.66.57 4.944 5.004 0 01-.244.478c-.597 1.089-2.532 1.645-5.751 1.645a88.031 89.104 0 01-13.17-1.517c-5.297-.91-11.334-1.882-16.294-2.232a105.178 106.46 0 002.023-15.872c0-.6-.899-.735-1.219-.735-.4 0-1.705.167-1.783 2.314l-.133 2.582c-.466 2.543-1.866 6.838-6.012 7.043-.093 0-.184.008-.276.008a5.244 5.308 0 01-4.078-1.863c-1.965-2.249-2.792-6.441-2.213-11.215a25.23 25.538 0 011.077-4.848c6.618-.154 12.926-3.195 14.46-7.01a4.168 4.219 0 00-.194-3.993c-.9-1.356-2.715-1.958-4.947-1.655-4.62.607-9.206 4.53-11.778 10.052-2.91-.832-5.412-3.337-4.777-6.72.918-4.961 7.428-6.583 9.568-6.583a1.885 1.907 0 01.626.071 2.665 2.697 0 00.929.172 1.051 1.064 0 001.162-.666c.163-.73-.817-1.2-1.194-1.382a2.919 2.954 0 00-1.151-.174C9.91.004 1.493 2.065.182 8.702a6.673 6.754 0 00.917 5.282 9.332 9.445 0 005.661 3.589 23.961 24.253 0 00-1.223 5.563c-.54 5.026.538 9.471 2.954 12.197a8.372 8.474 0 006.403 2.853h.3a8.431 8.534 0 005.814-2.657 47.528 48.107 0 01-.821 4.844q-.544-.01-1.06-.01c-5.926 0-9.237 1.242-10.42 3.902a4.405 4.458 0 00.28 4.413 6.271 6.348 0 005.216 2.797 5.966 6.039 0 00.967-.08c3.218-.583 5.463-3.383 7.042-8.8a111.251 112.607 0 0116.313 2.333c.974.202 1.956.417 2.936.628 5.337 1.15 10.378 2.235 14.044 2.235 2.109 0 3.57-.369 4.463-1.124a2.598 2.63 0 001.027-2.21 3.431 3.473 0 00-1.468-2.6zm-44.053 6.912a3.357 3.398 0 01-1.092.192 2.612 2.644 0 01-2.328-1.315 2.945 2.98 0 01.231-3.045c.54-.887 2.264-1.935 7.347-2.022-1.04 3.486-2.44 5.565-4.158 6.19zm3.328-41.071a4.796 4.855 0 01.835-.081 1.727 1.748 0 011.5.624 2.405 2.434 0 01-.12 2.235c-1.309 2.775-6.046 4.78-9.993 5.096 1.946-4.213 5.013-7.34 7.778-7.874z"/>
</svg>
