<svg xmlns="http://www.w3.org/2000/svg" width="106" height="36">
  <path fill="#fff" fill-rule="evenodd" d="M43.59 26.254a1.946 1.946 0 00.54-.098v1.305a3.103 3.103 0 01-1.149.206 1.632 1.632 0 01-1.63-.952 4.702 4.702 0 01-3.071 1.05 2.552 2.552 0 01-2.846-2.492c0-2.09 1.933-2.729 3.631-2.729a10.707 10.707 0 012.12.236v-.285c0-1.02-.746-1.737-2.14-1.737a7.2 7.2 0 00-2.934.628v-1.659a9.855 9.855 0 013.121-.54c2.306 0 3.769 1.1 3.769 3.563v2.915a.523.523 0 00.589.59m-6.292-1.1a1.323 1.323 0 001.522 1.207 3.31 3.31 0 002.365-.972v-1.374a9.799 9.799 0 00-1.767-.206c-1.03 0-2.12.324-2.12 1.345m12.072-5.967a4.828 4.828 0 012.513.628v1.658a3.984 3.984 0 00-2.257-.677 2.686 2.686 0 10-.03 5.359 4.907 4.907 0 002.375-.628v1.678a6.168 6.168 0 01-2.699.56 4.114 4.114 0 01-4.397-4.22 4.22 4.22 0 014.495-4.358m11.896 7.066a1.946 1.946 0 00.54-.098v1.305a3.103 3.103 0 01-1.149.206 1.632 1.632 0 01-1.629-.952 4.702 4.702 0 01-3.072 1.05 2.552 2.552 0 01-2.846-2.492c0-2.09 1.933-2.729 3.621-2.729a10.806 10.806 0 012.13.236v-.285c0-1.02-.756-1.737-2.14-1.737a7.2 7.2 0 00-2.934.628v-1.659a9.8 9.8 0 013.121-.54c2.307 0 3.76 1.1 3.76 3.563v2.915a.53.53 0 00.598.59m-6.291-1.1a1.323 1.323 0 001.52 1.207 3.327 3.327 0 002.366-.972v-1.374a9.906 9.906 0 00-1.766-.206c-1.04 0-2.12.324-2.12 1.345m16.36-9.481V27.55h-1.619v-1.296a3.804 3.804 0 01-3.12 1.512 4.297 4.297 0 010-8.578 3.79 3.79 0 012.934 1.266v-4.78zm-4.426 5.104a2.705 2.705 0 000 5.398 2.836 2.836 0 002.601-1.718v-1.983a2.851 2.851 0 00-2.6-1.697m10.314-1.59c3.24 0 4.358 2.61 3.838 4.966h-6.124c.206 1.462 1.629 2.07 3.12 2.07a5.924 5.924 0 002.582-.578v1.56a7.059 7.059 0 01-2.925.56c-2.493 0-4.613-1.424-4.613-4.29a4.076 4.076 0 014.122-4.288m.089 1.501a2.227 2.227 0 00-2.395 2.11h4.515a1.928 1.928 0 00-2.12-2.11m5.594 6.86v-8.146h1.61v1.021a3.735 3.735 0 012.718-1.236 2.76 2.76 0 012.542 1.305 4.03 4.03 0 012.846-1.305 2.986 2.986 0 013.092 3.268v5.094h-1.816v-5.045a1.548 1.548 0 00-1.61-1.708 2.723 2.723 0 00-2.021 1.1 5.358 5.358 0 01.04.559v5.094H88.49v-5.045a1.548 1.548 0 00-1.61-1.708 2.865 2.865 0 00-2.158 1.256v5.497zm20.817-8.146h1.894L101.8 28.65c-.873 2.12-2.032 2.836-3.268 2.836a4.994 4.994 0 01-1.07-.137v-1.55a2.735 2.735 0 00.834.127c.884 0 1.541-.628 2.012-1.904l.177-.403-3.867-8.215h1.933l2.749 6.144zM37.828 1.413v4.633a3.73 3.73 0 012.63-1.12 3.171 3.171 0 013.357 3.328v5.035H42v-4.8a1.767 1.767 0 00-1.895-1.952A2.873 2.873 0 0037.828 7.9v5.388h-1.815V1.413zm10.963.835v2.905h2.955v1.59H48.79v3.73c0 1.069.491 1.422 1.541 1.422a4.523 4.523 0 001.65-.314v1.56a6.772 6.772 0 01-2.19.354 2.492 2.492 0 01-2.797-2.68V6.744h-1.462v-1.59h1.462V2.689zm5.27 11.041V5.153h1.61v1.01a3.735 3.735 0 012.72-1.236 2.78 2.78 0 012.541 1.305 4.073 4.073 0 012.856-1.305 2.991 2.991 0 013.082 3.278v5.084h-1.816V8.254a1.556 1.556 0 00-1.61-1.717 2.731 2.731 0 00-2.021 1.109 5.358 5.358 0 01.04.559v5.084h-1.817V8.254a1.556 1.556 0 00-1.61-1.717 2.893 2.893 0 00-2.158 1.256v5.496zm15.469 0h1.806V1.413H69.53zM14.365.019L14.215 0 0 1.492V27.55L14.215 36l14.22-8.45V1.492zM26.57 26.49l-12.356 7.352L1.86 26.49V15.81l12.302 7.322.021 1.325-8.44-5.025-.013 1.295 8.474 5.084.02 1.365-8.47-5.035-.012 1.285 8.473 5.094 8.557-5.123v-1.286h-.01v-4.21l3.808-2.277V26.49zm-.01-12.248l-3.376 1.992-1.56.923-7.446-4.426-.013 1.285 6.36 3.789-.06.03-.127.078-.913.53-5.247-3.121-.013 1.285 4.141 2.474-.971.647-.03.02-3.127-1.845-.013 1.286 2.05 1.207-2.088 1.256-12.242-7.273 12.26-7.37zm.01-1.296L14.15 5.624 1.863 12.936V3.17l12.355-1.295L26.574 3.17v9.775z"/>
</svg>
